<svg xmlns="http://www.w3.org/2000/svg" width="39" height="33" viewBox="0 0 39 33"><g><g><g><path fill="none" stroke="#2e4765" stroke-linecap="round" stroke-linejoin="round" stroke-miterlimit="20" d="M24.633 8.85c-4.335-4.335-11.366-4.335-15.703 0-4.335 4.337-4.335 11.367 0 15.703 4.337 4.336 11.368 4.336 15.703 0 4.337-4.336 4.337-11.366 0-15.702z"/></g><g><path fill="none" stroke="#2e4765" stroke-linecap="round" stroke-linejoin="round" stroke-miterlimit="20" d="M14.244 22.708c-.554.016-.749.749-.26 1.01a7.237 7.237 0 0 0 9.738-9.88c-.269-.486-.998-.28-1.007.274"/></g><g><path fill="none" stroke="#2e4765" stroke-linecap="round" stroke-linejoin="round" stroke-miterlimit="20" d="M16.783 8.624a8.079 8.079 0 0 0-8.08 8.079"/></g><g><path fill="none" stroke="#2e4765" stroke-linecap="round" stroke-linejoin="round" stroke-miterlimit="20" d="M27.886 5.6a15.263 15.263 0 0 0-.563-.537C21.16-.527 11.627-.349 5.679 5.6c-6.132 6.132-6.132 16.075 0 22.206 5.528 5.528 14.149 6.07 20.287 1.634"/></g><g><g><path fill="none" stroke="#2e4765" stroke-linecap="round" stroke-miterlimit="20" d="M32.632 16.054a3.12 3.12 0 0 0-1.016-2.286c-.993-.918-1.64-2.462-1.64-4.185 0-2.779 1.699-5.5 3.794-5.5 2.095 0 3.793 2.721 3.793 5.5 0 1.72-.65 3.264-1.643 4.184a3.113 3.113 0 0 0-1.011 2.282v13.389c0 .629-.51 1.138-1.139 1.138v0c-.63 0-1.138-.51-1.138-1.138z"/></g><g><path fill="none" stroke="#2e4765" stroke-linecap="round" stroke-miterlimit="20" d="M33.77 5.844c.931 0 2.112 1.76 2.112 3.739"/></g></g></g></g></svg>