<svg xmlns="http://www.w3.org/2000/svg" width="39" height="33" viewBox="0 0 39 33"><g><g><g><path fill="none" stroke="#2e4765" stroke-miterlimit="20" d="M19.513 18.2c1.76 0 1.76 3.45 3.52 3.45s1.76-3.45 3.518-3.45c1.76 0 1.76 3.45 3.518 3.45l-.985 3.82a1.385 1.385 0 0 1-1.34 1.038H19.51v0h-8.233c-.631 0-1.182-.427-1.34-1.037l-.986-3.82c1.758 0 1.758-3.45 3.518-3.45 1.76 0 1.76 3.45 3.519 3.45 1.76 0 1.76-3.45 3.52-3.45z"/></g><g><path fill="none" stroke="#2e4765" stroke-miterlimit="20" d="M30.067 21.65c.494 0 .815-.226 1.02-.477.228-.28.335-.642.326-1.002C31.24 13.607 25.976 8.34 19.51 8.34h-.003c-6.466 0-11.728 5.267-11.902 11.831-.01.36.097.723.325 1.002.205.251.527.477 1.02.477"/></g><g><path fill="none" stroke="#2e4765" stroke-linecap="round" stroke-miterlimit="20" d="M19.51 8.34s-5.97.805-6.92 7.475"/></g><g><path fill="none" stroke="#2e4765" stroke-linecap="round" stroke-miterlimit="20" d="M19.507 8.34v5.807"/></g><g><path fill="none" stroke="#2e4765" stroke-linecap="round" stroke-miterlimit="20" d="M19.507 8.34s5.971.805 6.92 7.475"/></g><g><path fill="none" stroke="#2e4765" stroke-linecap="round" stroke-miterlimit="20" d="M21.577 6.27a2.07 2.07 0 1 0-4.139 0 2.07 2.07 0 0 0 4.14 0z"/></g><g><path fill="none" stroke="#2e4765" stroke-linecap="round" stroke-miterlimit="20" d="M19.519 4.2s-.263-2.556 1.726-3.2"/></g><g><path fill="none" stroke="#2e4765" stroke-linecap="round" stroke-miterlimit="20" d="M32.993 31.273c-3.59.724-8.34 1.123-13.377 1.123-5.035 0-9.786-.399-13.376-1.123"/></g><g><path fill="none" stroke="#2e4765" stroke-linecap="round" stroke-miterlimit="20" d="M29.576 23.56c5.11.662 8.496 1.82 8.496 3.136 0 2.056-8.263 3.722-18.456 3.722S1.16 28.752 1.16 26.696c0-1.299 3.295-2.442 8.291-3.108"/></g></g></g></svg>