<svg xmlns="http://www.w3.org/2000/svg" width="27" height="26" viewBox="0 0 27 26"><g><g><g><path fill="none" stroke="#2e4765" stroke-linecap="round" stroke-miterlimit="20" d="M10.254 16.427c-5.046-.739-8.714-2.972-8.714-5.613 0-.738.287-1.445.81-2.095"/></g><g><path fill="none" stroke="#2e4765" stroke-linecap="round" stroke-miterlimit="20" d="M25.443 8.72c.523.65.81 1.356.81 2.094 0 1.162-.71 2.244-1.935 3.156"/></g><g><path fill="none" stroke="#2e4765" stroke-linecap="round" stroke-miterlimit="20" d="M2.35 13.052c-.523.65-.81 1.357-.81 2.095 0 3.244 5.532 5.872 12.356 5.872 0 0 2.245.02 4.412-.341"/></g><g><path fill="none" stroke="#2e4765" stroke-linecap="round" stroke-miterlimit="20" d="M25.443 13.053c.523.65.81 1.357.81 2.094 0 .793-.331 1.549-.93 2.239"/></g><g><path fill="none" stroke="#2e4765" stroke-linecap="round" stroke-miterlimit="20" d="M25.443 17.386c.523.651.81 1.357.81 2.095 0 3.243-5.533 5.872-12.357 5.872-6.824 0-12.356-2.63-12.356-5.872 0-.738.287-1.445.81-2.095"/></g><g><path fill="none" stroke="#2e4765" stroke-linecap="round" stroke-linejoin="round" stroke-miterlimit="20" d="M22.926 14.675v0c0 1.017.161 2.034.54 2.979a1.406 1.406 0 1 1-2.69.764 1.41 1.41 0 0 1 .069-.737c.323-.86.55-1.753.55-2.671v0c0-.672-.545-1.217-1.218-1.217h-1.281a.686.686 0 0 0-.686.685v0c0 .418.154.811.392 1.154a1.407 1.407 0 1 1-2.536 1.07 1.405 1.405 0 0 1 .246-1.103c.224-.305.367-.662.367-1.04v0a.766.766 0 0 0-.766-.766h-.675a1.35 1.35 0 0 0-1.35 1.35v.822c0 .364.12.72.344 1.007a1.406 1.406 0 1 1-2.49 1.12 1.405 1.405 0 0 1 .248-1.088c.224-.305.367-.662.367-1.04v-1.27c0-1.23-.899-2.28-2.115-2.459-5.04-.74-8.702-2.973-8.702-5.61C1.54 3.38 7.072.751 13.896.751s12.356 2.63 12.356 5.872c0 0-.015 1.163-.809 2.096 0 0-2.516 2.47-2.516 6.101"/></g><g><path fill="none" stroke="#2e4765" stroke-linecap="round" stroke-linejoin="round" stroke-miterlimit="20" d="M13.896 2.403c-6.535 0-10.705 2.5-10.705 4.221"/></g></g></g></svg>