<svg xmlns="http://www.w3.org/2000/svg" width="33" height="29" viewBox="0 0 33 29"><g><g><g><path fill="none" stroke="#2e4765" stroke-linecap="round" stroke-linejoin="round" stroke-miterlimit="20" d="M28.484 6.335c0-2.776-5.343-5.027-11.934-5.027-6.59 0-11.933 2.251-11.933 5.027 0 2.777 5.343 5.028 11.933 5.028 6.591 0 11.934-2.251 11.934-5.028z"/></g><g><path fill="none" stroke="#2e4765" stroke-linecap="round" stroke-linejoin="round" stroke-miterlimit="20" d="M5.154 11.544c-.349.472-.537.974-.537 1.495 0 2.777 5.343 5.027 11.933 5.027 6.591 0 11.934-2.25 11.934-5.027 0-.516-.184-1.013-.526-1.48"/></g><g><path fill="none" stroke="#2e4765" stroke-linecap="round" stroke-linejoin="round" stroke-miterlimit="20" d="M29.085 20.511c.375.515.577 1.061.577 1.627 0 3.05-5.87 5.524-13.112 5.524-7.241 0-13.111-2.473-13.111-5.524 0-.572.206-1.124.59-1.643"/></g><g><path fill="none" stroke="#2e4765" stroke-linecap="round" stroke-linejoin="round" stroke-miterlimit="20" d="M28.056 7.768v0l4.345 3.188v0s-10.468.208-15.85 7.11C11.167 11.164.7 10.956.7 10.956v0l4.344-3.188v0"/></g><g><path fill="none" stroke="#2e4765" stroke-linejoin="round" stroke-miterlimit="20" d="M30.599 17.746c-.41 1.173-1.538.97-2.572 1.079a1.497 1.497 0 0 0-.96.471c-.832.928-1.35 2.767-2.39 3.047-1.279.342-3.032-1.709-4.337-1.535-1.309.17-2.472 2.604-3.79 2.604-1.317 0-2.48-2.433-3.789-2.604-1.305-.174-3.058 1.877-4.337 1.535-1.04-.28-1.558-2.119-2.39-3.047a1.497 1.497 0 0 0-.96-.471c-1.034-.11-2.163.094-2.572-1.079-.368-1.054.863-2.94 2.554-3.353 1.4 2.119 6.017 3.674 11.494 3.674 5.478 0 10.095-1.555 11.495-3.674 1.69.413 2.923 2.299 2.554 3.353z"/></g><g><g><path fill="none" stroke="#2e4765" stroke-miterlimit="20" d="M12.78 4.946h-.913"/></g><g><path fill="none" stroke="#2e4765" stroke-miterlimit="20" d="M13.98 7.725h.914"/></g><g><path fill="none" stroke="#2e4765" stroke-miterlimit="20" d="M17.007 4.946h-.914"/></g><g><path fill="none" stroke="#2e4765" stroke-miterlimit="20" d="M18.207 7.725h.914"/></g><g><path fill="none" stroke="#2e4765" stroke-miterlimit="20" d="M21.234 4.946h-.914"/></g></g></g></g></svg>